<svg width="221" height="25" viewBox="0 0 221 25" fill="none" xmlns="http://www.w3.org/2000/svg">
<path d="M8.98253 1.72C10.3825 1.72 11.6345 1.936 12.7385 2.368C13.8505 2.792 14.7945 3.4 15.5705 4.192C16.3465 4.984 16.9385 5.932 17.3465 7.036C17.7625 8.132 17.9705 9.356 17.9705 10.708C17.9705 11.932 17.7665 13.076 17.3585 14.14C16.9505 15.204 16.3625 16.136 15.5945 16.936C14.8265 17.736 13.8945 18.36 12.7985 18.808C11.7105 19.256 10.4825 19.48 9.11453 19.48C7.72253 19.48 6.47053 19.268 5.35853 18.844C4.25453 18.412 3.31053 17.8 2.52653 17.008C1.75053 16.216 1.15453 15.272 0.738531 14.176C0.330531 13.072 0.126531 11.844 0.126531 10.492C0.126531 9.268 0.330531 8.124 0.738531 7.06C1.14653 5.996 1.73453 5.064 2.50253 4.264C3.27053 3.464 4.19853 2.84 5.28653 2.392C6.38253 1.944 7.61453 1.72 8.98253 1.72ZM12.2465 13.996C12.2465 12.924 12.1585 11.876 11.9825 10.852C11.8145 9.82 11.5825 8.856 11.2865 7.96C10.9905 7.064 10.6545 6.276 10.2785 5.596C9.90253 4.916 9.50653 4.384 9.09053 4C8.68253 3.608 8.27453 3.412 7.86653 3.412C7.43453 3.412 7.07053 3.556 6.77453 3.844C6.48653 4.132 6.26653 4.556 6.11453 5.116C5.97053 5.676 5.89853 6.372 5.89853 7.204C5.89853 8.276 5.98253 9.328 6.15053 10.36C6.32653 11.384 6.56253 12.344 6.85853 13.24C7.15453 14.136 7.49053 14.924 7.86653 15.604C8.24253 16.284 8.63453 16.82 9.04253 17.212C9.45853 17.596 9.87053 17.788 10.2785 17.788C10.7185 17.788 11.0825 17.644 11.3705 17.356C11.6585 17.068 11.8745 16.644 12.0185 16.084C12.1705 15.524 12.2465 14.828 12.2465 13.996ZM28.199 16.54V16.384H28.019V10.84C28.019 10.584 27.983 10.404 27.911 10.3C27.847 10.188 27.747 10.112 27.611 10.072L27.347 9.988C27.179 9.932 27.055 9.852 26.975 9.748C26.903 9.644 26.867 9.512 26.867 9.352C26.867 9.16 26.919 9.008 27.023 8.896C27.127 8.784 27.323 8.672 27.611 8.56L30.275 7.528C30.683 7.368 31.011 7.252 31.259 7.18C31.515 7.108 31.763 7.072 32.003 7.072C32.363 7.072 32.635 7.176 32.819 7.384C33.011 7.584 33.107 7.84 33.107 8.152V16.48C33.107 16.8 33.131 17.028 33.179 17.164C33.227 17.292 33.311 17.384 33.431 17.44L33.695 17.56C33.879 17.64 34.011 17.74 34.091 17.86C34.171 17.98 34.211 18.12 34.211 18.28C34.211 18.504 34.139 18.68 33.995 18.808C33.851 18.936 33.619 19 33.299 19H30.359C29.791 19 29.287 18.756 28.847 18.268C28.415 17.78 28.199 17.204 28.199 16.54ZM20.267 15.496V10.84C20.267 10.584 20.231 10.404 20.159 10.3C20.095 10.188 19.995 10.112 19.859 10.072L19.595 9.988C19.427 9.932 19.303 9.852 19.223 9.748C19.151 9.644 19.115 9.512 19.115 9.352C19.115 9.16 19.167 9.008 19.271 8.896C19.375 8.784 19.571 8.672 19.859 8.56L22.523 7.528C22.955 7.36 23.295 7.244 23.543 7.18C23.791 7.108 24.011 7.072 24.203 7.072C24.587 7.072 24.875 7.176 25.067 7.384C25.259 7.584 25.355 7.84 25.355 8.152V14.776C25.355 15.288 25.471 15.672 25.703 15.928C25.943 16.184 26.275 16.312 26.699 16.312C26.963 16.312 27.239 16.26 27.527 16.156C27.815 16.052 28.071 15.9 28.295 15.7L28.715 15.328L29.435 16.096L29.075 16.432C27.947 17.512 26.967 18.268 26.135 18.7C25.303 19.124 24.539 19.336 23.843 19.336C22.779 19.336 21.915 18.98 21.251 18.268C20.595 17.556 20.267 16.632 20.267 15.496ZM41.3223 12.448C41.3223 11.224 41.4823 10.216 41.8023 9.424C42.1223 8.624 42.5463 8.032 43.0743 7.648C43.6103 7.264 44.1943 7.072 44.8263 7.072C45.6743 7.072 46.3223 7.328 46.7703 7.84C47.2263 8.344 47.4543 9.108 47.4543 10.132C47.4543 11.18 47.2423 11.952 46.8183 12.448C46.4023 12.944 45.8583 13.192 45.1863 13.192C44.5063 13.192 43.9943 13.02 43.6503 12.676C43.3143 12.324 43.1463 11.84 43.1463 11.224V10.72C43.1383 10.512 43.0903 10.356 43.0023 10.252C42.9223 10.14 42.7943 10.084 42.6183 10.084C42.4583 10.084 42.3143 10.156 42.1863 10.3C42.0663 10.436 41.9703 10.664 41.8983 10.984C41.8263 11.296 41.7903 11.72 41.7903 12.256L41.3223 12.448ZM41.4543 8.152L41.7903 10.66V16.48C41.7903 16.76 41.8303 16.96 41.9103 17.08C41.9903 17.192 42.1743 17.276 42.4623 17.332L43.3743 17.512C43.6143 17.56 43.7903 17.644 43.9023 17.764C44.0143 17.884 44.0703 18.052 44.0703 18.268C44.0703 18.5 43.9903 18.68 43.8303 18.808C43.6783 18.936 43.4503 19 43.1463 19H36.5103C36.1903 19 35.9583 18.936 35.8143 18.808C35.6703 18.68 35.5983 18.504 35.5983 18.28C35.5983 18.12 35.6383 17.98 35.7183 17.86C35.7983 17.74 35.9303 17.64 36.1143 17.56L36.3783 17.44C36.4983 17.384 36.5823 17.292 36.6303 17.164C36.6783 17.028 36.7023 16.8 36.7023 16.48V10.888C36.7023 10.632 36.6663 10.452 36.5943 10.348C36.5303 10.236 36.4303 10.16 36.2943 10.12L36.0303 10.036C35.8623 9.98 35.7383 9.9 35.6583 9.796C35.5863 9.692 35.5503 9.56 35.5503 9.4C35.5503 9.208 35.6023 9.056 35.7063 8.944C35.8183 8.824 36.0143 8.712 36.2943 8.608L38.8743 7.6C39.4423 7.376 39.8503 7.232 40.0983 7.168C40.3463 7.104 40.5383 7.072 40.6743 7.072C40.8983 7.072 41.0703 7.156 41.1903 7.324C41.3103 7.484 41.3983 7.76 41.4543 8.152ZM59.124 11.08L58.404 10.312L58.764 9.976C59.892 8.896 60.872 8.144 61.704 7.72C62.536 7.288 63.3 7.072 63.996 7.072C65.068 7.072 65.932 7.428 66.588 8.14C67.244 8.844 67.572 9.768 67.572 10.912V16.48C67.572 16.8 67.596 17.028 67.644 17.164C67.692 17.292 67.776 17.384 67.896 17.44L68.16 17.56C68.344 17.64 68.476 17.74 68.556 17.86C68.636 17.98 68.676 18.12 68.676 18.28C68.676 18.504 68.604 18.68 68.46 18.808C68.316 18.936 68.084 19 67.764 19H62.448C61.832 19 61.524 18.744 61.524 18.232C61.524 17.944 61.656 17.724 61.92 17.572L62.16 17.44C62.28 17.376 62.364 17.28 62.412 17.152C62.46 17.024 62.484 16.8 62.484 16.48V11.632C62.484 11.12 62.364 10.736 62.124 10.48C61.892 10.224 61.564 10.096 61.14 10.096C60.876 10.096 60.6 10.148 60.312 10.252C60.024 10.356 59.768 10.508 59.544 10.708L59.124 11.08ZM59.556 1.96V16.48C59.556 16.8 59.58 17.024 59.628 17.152C59.676 17.28 59.76 17.376 59.88 17.44L60.12 17.572C60.384 17.724 60.516 17.944 60.516 18.232C60.516 18.744 60.208 19 59.592 19H54.276C53.956 19 53.724 18.936 53.58 18.808C53.436 18.68 53.364 18.504 53.364 18.28C53.364 18.12 53.404 17.98 53.484 17.86C53.564 17.74 53.696 17.64 53.88 17.56L54.144 17.44C54.264 17.384 54.348 17.292 54.396 17.164C54.444 17.028 54.468 16.8 54.468 16.48V4.648C54.468 4.392 54.432 4.212 54.36 4.108C54.296 3.996 54.196 3.92 54.06 3.88L53.796 3.796C53.628 3.74 53.504 3.66 53.424 3.556C53.352 3.452 53.316 3.32 53.316 3.16C53.316 2.968 53.368 2.816 53.472 2.704C53.576 2.592 53.772 2.48 54.06 2.368L56.724 1.336C57.132 1.176 57.46 1.06 57.708 0.987999C57.964 0.915999 58.212 0.879999 58.452 0.879999C58.812 0.879999 59.084 0.983999 59.268 1.192C59.46 1.392 59.556 1.648 59.556 1.96ZM81.9731 11.704C81.9731 12.264 81.8211 12.7 81.5171 13.012C81.2131 13.316 80.7771 13.468 80.2091 13.468H73.0931V12.22H76.2971C76.7371 12.22 76.9571 12.012 76.9571 11.596C76.9571 10.588 76.8411 9.868 76.6091 9.436C76.3771 9.004 76.0691 8.788 75.6851 8.788C75.4051 8.788 75.1531 8.892 74.9291 9.1C74.7051 9.308 74.5251 9.628 74.3891 10.06C74.2611 10.484 74.1971 11.024 74.1971 11.68C74.1971 13.136 74.5251 14.204 75.1811 14.884C75.8371 15.556 76.7331 15.892 77.8691 15.892C78.3971 15.892 78.8771 15.832 79.3091 15.712C79.7411 15.592 80.1651 15.348 80.5811 14.98C80.8131 14.772 80.9891 14.632 81.1091 14.56C81.2291 14.488 81.3451 14.452 81.4571 14.452C81.6171 14.452 81.7331 14.532 81.8051 14.692C81.8851 14.852 81.9251 15.048 81.9251 15.28C81.9251 15.992 81.6811 16.66 81.1931 17.284C80.7131 17.9 80.0411 18.396 79.1771 18.772C78.3211 19.148 77.3211 19.336 76.1771 19.336C74.9531 19.336 73.8531 19.096 72.8771 18.616C71.9011 18.128 71.1291 17.452 70.5611 16.588C69.9931 15.716 69.7091 14.7 69.7091 13.54C69.7091 12.236 69.9691 11.1 70.4891 10.132C71.0091 9.164 71.7651 8.412 72.7571 7.876C73.7571 7.34 74.9611 7.072 76.3691 7.072C77.6091 7.072 78.6451 7.272 79.4771 7.672C80.3091 8.072 80.9331 8.62 81.3491 9.316C81.7651 10.012 81.9731 10.808 81.9731 11.704ZM90.5428 17.356V17.08L90.1588 17.068V9.316C90.1588 9.012 90.0748 8.768 89.9068 8.584C89.7468 8.4 89.5268 8.308 89.2468 8.308C89.0388 8.308 88.8548 8.36 88.6948 8.464C88.5428 8.56 88.4668 8.692 88.4668 8.86V10.168C88.4668 10.84 88.2348 11.36 87.7708 11.728C87.3148 12.096 86.6588 12.28 85.8028 12.28C85.0748 12.28 84.5308 12.128 84.1708 11.824C83.8188 11.512 83.6428 11.08 83.6428 10.528C83.6428 10 83.8828 9.472 84.3628 8.944C84.8428 8.416 85.5628 7.976 86.5228 7.624C87.4908 7.272 88.7068 7.096 90.1708 7.096C91.8668 7.096 93.1268 7.408 93.9508 8.032C94.7748 8.648 95.1868 9.492 95.1868 10.564V16.3C95.1868 16.452 95.2228 16.58 95.2948 16.684C95.3748 16.78 95.4948 16.828 95.6548 16.828C95.7908 16.828 95.8988 16.792 95.9788 16.72C96.0668 16.648 96.1468 16.576 96.2188 16.504C96.2748 16.448 96.3308 16.4 96.3868 16.36C96.4508 16.32 96.5228 16.3 96.6028 16.3C96.7388 16.3 96.8348 16.352 96.8908 16.456C96.9548 16.552 96.9868 16.676 96.9868 16.828C96.9868 17.18 96.8588 17.552 96.6028 17.944C96.3468 18.328 95.9628 18.656 95.4508 18.928C94.9468 19.2 94.3188 19.336 93.5668 19.336C92.6788 19.336 91.9508 19.148 91.3828 18.772C90.8228 18.396 90.5428 17.924 90.5428 17.356ZM83.2108 16.444C83.2108 15.348 83.7068 14.484 84.6988 13.852C85.6908 13.212 87.0828 12.892 88.8748 12.892C89.3468 12.892 89.7588 12.924 90.1108 12.988C90.4628 13.052 90.7508 13.144 90.9748 13.264L90.5668 14.308C90.3988 14.212 90.2388 14.144 90.0868 14.104C89.9428 14.064 89.7828 14.044 89.6068 14.044C89.2148 14.044 88.9028 14.176 88.6708 14.44C88.4468 14.696 88.3348 15.068 88.3348 15.556C88.3348 16.068 88.4468 16.46 88.6708 16.732C88.8948 16.996 89.1908 17.128 89.5588 17.128C89.7908 17.128 90.0068 17.076 90.2068 16.972C90.4148 16.86 90.5708 16.732 90.6748 16.588L90.9628 17.548C90.5788 18.116 90.0188 18.556 89.2828 18.868C88.5548 19.18 87.7748 19.336 86.9428 19.336C85.8228 19.336 84.9188 19.06 84.2308 18.508C83.5508 17.956 83.2108 17.268 83.2108 16.444ZM106.252 16.876L106.072 16.864V4.648C106.072 4.392 106.036 4.212 105.964 4.108C105.9 3.996 105.8 3.92 105.664 3.88L105.4 3.796C105.232 3.74 105.108 3.66 105.028 3.556C104.956 3.452 104.92 3.32 104.92 3.16C104.92 2.968 104.972 2.816 105.076 2.704C105.18 2.592 105.376 2.48 105.664 2.368L108.328 1.336C108.736 1.176 109.064 1.06 109.312 0.987999C109.568 0.915999 109.816 0.879999 110.056 0.879999C110.416 0.879999 110.688 0.983999 110.872 1.192C111.064 1.392 111.16 1.648 111.16 1.96V16.48C111.16 16.8 111.184 17.028 111.232 17.164C111.28 17.292 111.364 17.384 111.484 17.44L111.748 17.56C111.932 17.64 112.064 17.74 112.144 17.86C112.224 17.98 112.264 18.12 112.264 18.28C112.264 18.504 112.192 18.68 112.048 18.808C111.904 18.936 111.672 19 111.352 19H108.292C107.756 19 107.28 18.804 106.864 18.412C106.456 18.02 106.252 17.556 106.252 17.02V16.876ZM97.5763 13.6C97.5763 12.296 97.8443 11.156 98.3803 10.18C98.9163 9.196 99.6483 8.432 100.576 7.888C101.504 7.344 102.552 7.072 103.72 7.072C104.696 7.072 105.544 7.28 106.264 7.696C106.984 8.104 107.608 8.728 108.136 9.568L106.828 10.456C106.46 9.928 106.112 9.556 105.784 9.34C105.456 9.116 105.1 9.004 104.716 9.004C104.34 9.004 104.008 9.14 103.72 9.412C103.44 9.684 103.22 10.12 103.06 10.72C102.908 11.312 102.832 12.1 102.832 13.084C102.832 13.98 102.912 14.704 103.072 15.256C103.24 15.8 103.464 16.2 103.744 16.456C104.032 16.704 104.356 16.828 104.716 16.828C105.164 16.828 105.568 16.68 105.928 16.384C106.296 16.08 106.644 15.592 106.972 14.92L107.824 15.736C107.144 16.848 106.372 17.728 105.508 18.376C104.652 19.016 103.672 19.336 102.568 19.336C101.616 19.336 100.764 19.092 100.012 18.604C99.2603 18.116 98.6643 17.444 98.2243 16.588C97.7923 15.724 97.5763 14.728 97.5763 13.6ZM121.736 24.592C121.416 24.592 121.184 24.528 121.04 24.4C120.896 24.272 120.824 24.096 120.824 23.872C120.824 23.712 120.864 23.572 120.944 23.452C121.024 23.332 121.156 23.232 121.34 23.152L121.604 23.032C121.724 22.976 121.808 22.88 121.856 22.744C121.904 22.616 121.928 22.392 121.928 22.072V8.296L123.92 7.624C124.536 7.416 124.992 7.276 125.288 7.204C125.592 7.132 125.84 7.096 126.032 7.096C126.344 7.096 126.584 7.172 126.752 7.324C126.928 7.476 127.016 7.696 127.016 7.984V22.072C127.016 22.392 127.04 22.616 127.088 22.744C127.136 22.88 127.22 22.976 127.34 23.032L127.604 23.152C127.788 23.232 127.92 23.332 128 23.452C128.08 23.572 128.12 23.712 128.12 23.872C128.12 24.096 128.048 24.272 127.904 24.4C127.76 24.528 127.528 24.592 127.208 24.592H121.736ZM123.68 15.736C123 16.848 122.228 17.728 121.364 18.376C120.508 19.016 119.528 19.336 118.424 19.336C117.472 19.336 116.62 19.092 115.868 18.604C115.116 18.116 114.52 17.444 114.08 16.588C113.648 15.724 113.432 14.728 113.432 13.6C113.432 12.296 113.7 11.156 114.236 10.18C114.772 9.196 115.504 8.432 116.432 7.888C117.36 7.344 118.408 7.072 119.576 7.072C120.552 7.072 121.4 7.28 122.12 7.696C122.84 8.104 123.464 8.728 123.992 9.568L122.684 10.456C122.316 9.928 121.968 9.556 121.64 9.34C121.312 9.116 120.956 9.004 120.572 9.004C120.196 9.004 119.864 9.14 119.576 9.412C119.296 9.684 119.076 10.12 118.916 10.72C118.764 11.312 118.688 12.1 118.688 13.084C118.688 13.98 118.768 14.704 118.928 15.256C119.096 15.8 119.32 16.2 119.6 16.456C119.888 16.704 120.212 16.828 120.572 16.828C121.02 16.828 121.424 16.68 121.784 16.384C122.152 16.08 122.5 15.592 122.828 14.92L123.68 15.736ZM137.957 16.54V16.384H137.777V10.84C137.777 10.584 137.741 10.404 137.669 10.3C137.605 10.188 137.505 10.112 137.369 10.072L137.105 9.988C136.937 9.932 136.813 9.852 136.733 9.748C136.661 9.644 136.625 9.512 136.625 9.352C136.625 9.16 136.677 9.008 136.781 8.896C136.885 8.784 137.081 8.672 137.369 8.56L140.033 7.528C140.441 7.368 140.769 7.252 141.017 7.18C141.273 7.108 141.521 7.072 141.761 7.072C142.121 7.072 142.393 7.176 142.577 7.384C142.769 7.584 142.865 7.84 142.865 8.152V16.48C142.865 16.8 142.889 17.028 142.937 17.164C142.985 17.292 143.069 17.384 143.189 17.44L143.453 17.56C143.637 17.64 143.769 17.74 143.849 17.86C143.929 17.98 143.969 18.12 143.969 18.28C143.969 18.504 143.897 18.68 143.753 18.808C143.609 18.936 143.377 19 143.057 19H140.117C139.549 19 139.045 18.756 138.605 18.268C138.173 17.78 137.957 17.204 137.957 16.54ZM130.025 15.496V10.84C130.025 10.584 129.989 10.404 129.917 10.3C129.853 10.188 129.753 10.112 129.617 10.072L129.353 9.988C129.185 9.932 129.061 9.852 128.981 9.748C128.909 9.644 128.873 9.512 128.873 9.352C128.873 9.16 128.925 9.008 129.029 8.896C129.133 8.784 129.329 8.672 129.617 8.56L132.281 7.528C132.713 7.36 133.053 7.244 133.301 7.18C133.549 7.108 133.769 7.072 133.961 7.072C134.345 7.072 134.633 7.176 134.825 7.384C135.017 7.584 135.113 7.84 135.113 8.152V14.776C135.113 15.288 135.229 15.672 135.461 15.928C135.701 16.184 136.033 16.312 136.457 16.312C136.721 16.312 136.997 16.26 137.285 16.156C137.573 16.052 137.829 15.9 138.053 15.7L138.473 15.328L139.193 16.096L138.833 16.432C137.705 17.512 136.725 18.268 135.893 18.7C135.061 19.124 134.297 19.336 133.601 19.336C132.537 19.336 131.673 18.98 131.009 18.268C130.353 17.556 130.025 16.632 130.025 15.496ZM152.652 17.356V17.08L152.268 17.068V9.316C152.268 9.012 152.184 8.768 152.016 8.584C151.856 8.4 151.636 8.308 151.356 8.308C151.148 8.308 150.964 8.36 150.804 8.464C150.652 8.56 150.576 8.692 150.576 8.86V10.168C150.576 10.84 150.344 11.36 149.88 11.728C149.424 12.096 148.768 12.28 147.912 12.28C147.184 12.28 146.64 12.128 146.28 11.824C145.928 11.512 145.752 11.08 145.752 10.528C145.752 10 145.992 9.472 146.472 8.944C146.952 8.416 147.672 7.976 148.632 7.624C149.6 7.272 150.816 7.096 152.28 7.096C153.976 7.096 155.236 7.408 156.06 8.032C156.884 8.648 157.296 9.492 157.296 10.564V16.3C157.296 16.452 157.332 16.58 157.404 16.684C157.484 16.78 157.604 16.828 157.764 16.828C157.9 16.828 158.008 16.792 158.088 16.72C158.176 16.648 158.256 16.576 158.328 16.504C158.384 16.448 158.44 16.4 158.496 16.36C158.56 16.32 158.632 16.3 158.712 16.3C158.848 16.3 158.944 16.352 159 16.456C159.064 16.552 159.096 16.676 159.096 16.828C159.096 17.18 158.968 17.552 158.712 17.944C158.456 18.328 158.072 18.656 157.56 18.928C157.056 19.2 156.428 19.336 155.676 19.336C154.788 19.336 154.06 19.148 153.492 18.772C152.932 18.396 152.652 17.924 152.652 17.356ZM145.32 16.444C145.32 15.348 145.816 14.484 146.808 13.852C147.8 13.212 149.192 12.892 150.984 12.892C151.456 12.892 151.868 12.924 152.22 12.988C152.572 13.052 152.86 13.144 153.084 13.264L152.676 14.308C152.508 14.212 152.348 14.144 152.196 14.104C152.052 14.064 151.892 14.044 151.716 14.044C151.324 14.044 151.012 14.176 150.78 14.44C150.556 14.696 150.444 15.068 150.444 15.556C150.444 16.068 150.556 16.46 150.78 16.732C151.004 16.996 151.3 17.128 151.668 17.128C151.9 17.128 152.116 17.076 152.316 16.972C152.524 16.86 152.68 16.732 152.784 16.588L153.072 17.548C152.688 18.116 152.128 18.556 151.392 18.868C150.664 19.18 149.884 19.336 149.052 19.336C147.932 19.336 147.028 19.06 146.34 18.508C145.66 17.956 145.32 17.268 145.32 16.444ZM165.518 12.448C165.518 11.224 165.678 10.216 165.998 9.424C166.318 8.624 166.742 8.032 167.27 7.648C167.806 7.264 168.39 7.072 169.022 7.072C169.87 7.072 170.518 7.328 170.966 7.84C171.422 8.344 171.65 9.108 171.65 10.132C171.65 11.18 171.438 11.952 171.014 12.448C170.598 12.944 170.054 13.192 169.382 13.192C168.702 13.192 168.19 13.02 167.846 12.676C167.51 12.324 167.342 11.84 167.342 11.224V10.72C167.334 10.512 167.286 10.356 167.198 10.252C167.118 10.14 166.99 10.084 166.814 10.084C166.654 10.084 166.51 10.156 166.382 10.3C166.262 10.436 166.166 10.664 166.094 10.984C166.022 11.296 165.986 11.72 165.986 12.256L165.518 12.448ZM165.65 8.152L165.986 10.66V16.48C165.986 16.76 166.026 16.96 166.106 17.08C166.186 17.192 166.37 17.276 166.658 17.332L167.57 17.512C167.81 17.56 167.986 17.644 168.098 17.764C168.21 17.884 168.266 18.052 168.266 18.268C168.266 18.5 168.186 18.68 168.026 18.808C167.874 18.936 167.646 19 167.342 19H160.706C160.386 19 160.154 18.936 160.01 18.808C159.866 18.68 159.794 18.504 159.794 18.28C159.794 18.12 159.834 17.98 159.914 17.86C159.994 17.74 160.126 17.64 160.31 17.56L160.574 17.44C160.694 17.384 160.778 17.292 160.826 17.164C160.874 17.028 160.898 16.8 160.898 16.48V10.888C160.898 10.632 160.862 10.452 160.79 10.348C160.726 10.236 160.626 10.16 160.49 10.12L160.226 10.036C160.058 9.98 159.934 9.9 159.854 9.796C159.782 9.692 159.746 9.56 159.746 9.4C159.746 9.208 159.798 9.056 159.902 8.944C160.014 8.824 160.21 8.712 160.49 8.608L163.07 7.6C163.638 7.376 164.046 7.232 164.294 7.168C164.542 7.104 164.734 7.072 164.87 7.072C165.094 7.072 165.266 7.156 165.386 7.324C165.506 7.484 165.594 7.76 165.65 8.152ZM173.093 8.992L172.709 8.836C172.533 8.764 172.401 8.672 172.313 8.56C172.225 8.448 172.181 8.312 172.181 8.152C172.181 7.92 172.257 7.744 172.409 7.624C172.569 7.496 172.773 7.432 173.021 7.432H173.681C173.833 7.432 173.973 7.392 174.101 7.312C174.237 7.232 174.409 7.088 174.617 6.88L176.573 4.9C176.837 4.636 177.081 4.44 177.305 4.312C177.537 4.184 177.757 4.12 177.965 4.12C178.197 4.12 178.377 4.196 178.505 4.348C178.641 4.5 178.709 4.72 178.709 5.008V14.632C178.709 15.216 178.809 15.66 179.009 15.964C179.209 16.268 179.497 16.42 179.873 16.42C180.177 16.42 180.409 16.344 180.569 16.192C180.737 16.04 180.869 15.868 180.965 15.676C181.069 15.476 181.177 15.3 181.289 15.148C181.401 14.996 181.553 14.92 181.745 14.92C181.905 14.92 182.033 14.976 182.129 15.088C182.225 15.2 182.273 15.392 182.273 15.664C182.273 16.344 182.077 16.964 181.685 17.524C181.293 18.076 180.753 18.516 180.065 18.844C179.377 19.172 178.593 19.336 177.713 19.336C176.409 19.336 175.401 19.024 174.689 18.4C173.977 17.768 173.621 16.816 173.621 15.544V9.772C173.621 9.54 173.577 9.372 173.489 9.268C173.409 9.164 173.277 9.072 173.093 8.992ZM176.957 9.136V7.432H181.337C181.585 7.432 181.781 7.488 181.925 7.6C182.077 7.704 182.153 7.856 182.153 8.056C182.153 8.36 182.005 8.616 181.709 8.824C181.413 9.032 180.925 9.136 180.245 9.136H176.957ZM195.411 11.704C195.411 12.264 195.259 12.7 194.955 13.012C194.651 13.316 194.215 13.468 193.647 13.468H186.531V12.22H189.735C190.175 12.22 190.395 12.012 190.395 11.596C190.395 10.588 190.279 9.868 190.047 9.436C189.815 9.004 189.507 8.788 189.123 8.788C188.843 8.788 188.591 8.892 188.367 9.1C188.143 9.308 187.963 9.628 187.827 10.06C187.699 10.484 187.635 11.024 187.635 11.68C187.635 13.136 187.963 14.204 188.619 14.884C189.275 15.556 190.171 15.892 191.307 15.892C191.835 15.892 192.315 15.832 192.747 15.712C193.179 15.592 193.603 15.348 194.019 14.98C194.251 14.772 194.427 14.632 194.547 14.56C194.667 14.488 194.783 14.452 194.895 14.452C195.055 14.452 195.171 14.532 195.243 14.692C195.323 14.852 195.363 15.048 195.363 15.28C195.363 15.992 195.119 16.66 194.631 17.284C194.151 17.9 193.479 18.396 192.615 18.772C191.759 19.148 190.759 19.336 189.615 19.336C188.391 19.336 187.291 19.096 186.315 18.616C185.339 18.128 184.567 17.452 183.999 16.588C183.431 15.716 183.147 14.7 183.147 13.54C183.147 12.236 183.407 11.1 183.927 10.132C184.447 9.164 185.203 8.412 186.195 7.876C187.195 7.34 188.399 7.072 189.807 7.072C191.047 7.072 192.083 7.272 192.915 7.672C193.747 8.072 194.371 8.62 194.787 9.316C195.203 10.012 195.411 10.808 195.411 11.704ZM202.408 12.448C202.408 11.224 202.568 10.216 202.888 9.424C203.208 8.624 203.632 8.032 204.16 7.648C204.696 7.264 205.28 7.072 205.912 7.072C206.76 7.072 207.408 7.328 207.856 7.84C208.312 8.344 208.54 9.108 208.54 10.132C208.54 11.18 208.328 11.952 207.904 12.448C207.488 12.944 206.944 13.192 206.272 13.192C205.592 13.192 205.08 13.02 204.736 12.676C204.4 12.324 204.232 11.84 204.232 11.224V10.72C204.224 10.512 204.176 10.356 204.088 10.252C204.008 10.14 203.88 10.084 203.704 10.084C203.544 10.084 203.4 10.156 203.272 10.3C203.152 10.436 203.056 10.664 202.984 10.984C202.912 11.296 202.876 11.72 202.876 12.256L202.408 12.448ZM202.54 8.152L202.876 10.66V16.48C202.876 16.76 202.916 16.96 202.996 17.08C203.076 17.192 203.26 17.276 203.548 17.332L204.46 17.512C204.7 17.56 204.876 17.644 204.988 17.764C205.1 17.884 205.156 18.052 205.156 18.268C205.156 18.5 205.076 18.68 204.916 18.808C204.764 18.936 204.536 19 204.232 19H197.596C197.276 19 197.044 18.936 196.9 18.808C196.756 18.68 196.684 18.504 196.684 18.28C196.684 18.12 196.724 17.98 196.804 17.86C196.884 17.74 197.016 17.64 197.2 17.56L197.464 17.44C197.584 17.384 197.668 17.292 197.716 17.164C197.764 17.028 197.788 16.8 197.788 16.48V10.888C197.788 10.632 197.752 10.452 197.68 10.348C197.616 10.236 197.516 10.16 197.38 10.12L197.116 10.036C196.948 9.98 196.824 9.9 196.744 9.796C196.672 9.692 196.636 9.56 196.636 9.4C196.636 9.208 196.688 9.056 196.792 8.944C196.904 8.824 197.1 8.712 197.38 8.608L199.96 7.6C200.528 7.376 200.936 7.232 201.184 7.168C201.432 7.104 201.624 7.072 201.76 7.072C201.984 7.072 202.156 7.156 202.276 7.324C202.396 7.484 202.484 7.76 202.54 8.152ZM215.228 8.596C214.756 8.596 214.404 8.696 214.172 8.896C213.948 9.096 213.836 9.336 213.836 9.616C213.836 9.784 213.868 9.944 213.932 10.096C213.996 10.24 214.144 10.372 214.376 10.492C214.608 10.612 214.976 10.716 215.48 10.804C216.968 11.052 218.1 11.384 218.876 11.8C219.652 12.208 220.18 12.692 220.46 13.252C220.748 13.812 220.892 14.448 220.892 15.16C220.892 16.464 220.436 17.488 219.524 18.232C218.62 18.968 217.28 19.336 215.504 19.336C214.896 19.336 214.408 19.288 214.04 19.192C213.68 19.096 213.388 19 213.164 18.904C212.948 18.808 212.752 18.76 212.576 18.76C212.384 18.76 212.224 18.808 212.096 18.904C211.968 19 211.84 19.096 211.712 19.192C211.584 19.288 211.42 19.336 211.22 19.336C211.02 19.336 210.868 19.276 210.764 19.156C210.668 19.044 210.576 18.84 210.488 18.544L209.864 16.42C209.736 15.996 209.7 15.664 209.756 15.424C209.812 15.176 209.964 15.004 210.212 14.908C210.468 14.812 210.692 14.808 210.884 14.896C211.076 14.984 211.26 15.16 211.436 15.424C211.804 15.96 212.184 16.404 212.576 16.756C212.976 17.108 213.392 17.372 213.824 17.548C214.264 17.724 214.716 17.812 215.18 17.812C215.716 17.812 216.116 17.712 216.38 17.512C216.652 17.312 216.788 17.044 216.788 16.708C216.788 16.5 216.732 16.32 216.62 16.168C216.516 16.016 216.296 15.88 215.96 15.76C215.632 15.632 215.132 15.508 214.46 15.388C213.3 15.18 212.376 14.884 211.688 14.5C211.008 14.108 210.52 13.628 210.224 13.06C209.928 12.484 209.78 11.816 209.78 11.056C209.78 10.248 209.996 9.548 210.428 8.956C210.868 8.356 211.464 7.892 212.216 7.564C212.976 7.236 213.84 7.072 214.808 7.072C215.44 7.072 215.936 7.124 216.296 7.228C216.664 7.324 216.96 7.424 217.184 7.528C217.416 7.624 217.644 7.672 217.868 7.672C218.084 7.672 218.264 7.624 218.408 7.528C218.56 7.424 218.708 7.324 218.852 7.228C218.996 7.124 219.164 7.072 219.356 7.072C219.532 7.072 219.68 7.136 219.8 7.264C219.92 7.392 220.008 7.612 220.064 7.924L220.436 9.976C220.508 10.384 220.512 10.692 220.448 10.9C220.392 11.1 220.248 11.248 220.016 11.344C219.768 11.448 219.548 11.448 219.356 11.344C219.164 11.232 218.968 11.036 218.768 10.756C218.208 9.948 217.62 9.388 217.004 9.076C216.396 8.756 215.804 8.596 215.228 8.596Z" fill="#83888F"/>
</svg>
